<?xml version="1.0" encoding="UTF-8" standalone="no"?>
<svg
   height="714"
   viewBox="0.5720224450860822 0.06999628194666574 311.1279775549139 63.44000371805333"
   width="2500"
   version="1.1"
   id="svg4"
   sodipodi:docname="not-trello-logo.svg"
   inkscape:version="1.3 (0e150ed6c4, 2023-07-21)"
   xmlns:inkscape="http://www.inkscape.org/namespaces/inkscape"
   xmlns:sodipodi="http://sodipodi.sourceforge.net/DTD/sodipodi-0.dtd"
   xmlns="http://www.w3.org/2000/svg"
   xmlns:svg="http://www.w3.org/2000/svg">
  <defs
     id="defs4" />
  <sodipodi:namedview
     id="namedview4"
     pagecolor="#ffffff"
     bordercolor="#000000"
     borderopacity="0.25"
     inkscape:showpageshadow="2"
     inkscape:pageopacity="0.0"
     inkscape:pagecheckerboard="0"
     inkscape:deskcolor="#d1d1d1"
     showgrid="false"
     inkscape:zoom="0.4964"
     inkscape:cx="1250"
     inkscape:cy="357.57454"
     inkscape:window-width="1920"
     inkscape:window-height="991"
     inkscape:window-x="-9"
     inkscape:window-y="-9"
     inkscape:window-maximized="1"
     inkscape:current-layer="svg4" />
  <linearGradient
     id="a"
     x1="50.048%"
     x2="50.048%"
     y1="100%"
     y2="0%">
    <stop
       offset="0"
       stop-color="#0052cc"
       id="stop1" />
    <stop
       offset="1"
       stop-color="#2684ff"
       id="stop2" />
  </linearGradient>
  <g
     fill="none"
     fill-rule="evenodd"
     id="g4">
    <path
       d="M55.59.07H8A7.42 7.42 0 0 0 .58 7.48V55A7.42 7.42 0 0 0 8 62.45h47.59A7.42 7.42 0 0 0 63 55V7.48A7.42 7.42 0 0 0 55.59.07zM27.5 45a2.48 2.48 0 0 1-2.5 2.47H14.6A2.47 2.47 0 0 1 12.14 45V14.05a2.47 2.47 0 0 1 2.46-2.47H25a2.48 2.48 0 0 1 2.47 2.47zm24-14.21a2.47 2.47 0 0 1-2.5 2.47H38.6a2.48 2.48 0 0 1-2.47-2.47V14.05a2.48 2.48 0 0 1 2.47-2.47H49a2.47 2.47 0 0 1 2.46 2.47z"
       fill="url(#a)"
       id="path2" />
    <g
       fill="#293856"
       fill-rule="nonzero"
       id="g3">
      <path
         d="M129.92 4.64V16.7h-14.29v45.75h-13.78V16.7H87.56V4.64zM147.46 62.45h-12.74v-45h12.74v8.62c2.42-6.07 6.29-9.68 13.18-9.24v13.33c-9-.7-13.18 1.5-13.18 8.71zM230.24 62.8c-8.35 0-13.6-4-13.6-13.46V.07h12.83v47.51c0 2.73 1.8 3.7 4 3.7a14.08 14.08 0 0 0 1.9-.09v11.09a18.75 18.75 0 0 1-5.13.52zM257 62.8c-8.35 0-13.61-4-13.61-13.46V.07h12.83v47.51c0 2.73 1.81 3.7 4.05 3.7a13.86 13.86 0 0 0 1.89-.09v11.09a18.66 18.66 0 0 1-5.16.52zM268.31 39.93c0-13.9 8-23.41 21.78-23.41S311.7 26 311.7 39.93s-7.92 23.58-21.61 23.58-21.78-9.77-21.78-23.58zm12.49 0c0 6.77 2.84 12.14 9.29 12.14s9.13-5.37 9.13-12.14-2.75-12-9.13-12-9.29 5.22-9.29 12zM177.84 44c3.567.392 7.152.602 10.74.63 9.76 0 18-2.62 18-12.07 0-9.17-8.47-16.06-18.66-16.06-13.72 0-22.51 9.95-22.51 23.85 0 14.43 7.58 23 24.71 23A41.08 41.08 0 0 0 205 60.69V49.91c-4.4 1.41-9.35 2.81-14.43 2.81-6.82 0-11.57-2.24-12.73-8.72zm9.82-17.68c3.61 0 6.51 2.45 6.51 5.8 0 4.31-4.55 5.66-9.79 5.66a44.69 44.69 0 0 1-6.66-.53 15.16 15.16 0 0 1 1.77-6 9.43 9.43 0 0 1 8.17-4.91z"
         id="path3" />
    </g>
  </g>
  <text
     xml:space="preserve"
     style="font-weight:bold;font-size:14.5905px;font-family:Arial;-inkscape-font-specification:'Arial Bold';fill:#ff0000;stroke-width:0.0759921"
     x="95.027161"
     y="2.2616954"
     id="text4"><tspan
       sodipodi:role="line"
       id="tspan4"
       style="stroke-width:0.0759921;fill:#ff0000"
       x="95.027161"
       y="2.2616954">Not </tspan></text>
</svg>
